<?xml version="1.0" encoding="UTF-8"?>
<svg version="1.1" xmlns="http://www.w3.org/2000/svg" width="407" height="386">
<path d="M0 0 C2.80056565 2.55721753 5.46407845 5.18055927 8 8 C11.69451184 6.45068859 14.03330068 4.16487502 16.875 1.375 C32.03643491 -12.57835245 52.10771907 -19.66300889 72.69921875 -19.25390625 C83.40982093 -18.43001377 97.51419985 -17.16483902 106.12890625 -10.3046875 C114.60251263 0.13253121 115.99302502 19.1837708 115 32 C112.07653592 54.51980927 102.55775311 73.41324749 85 88 C74.16325749 96.22405716 58.88611705 104 45 104 C45 104.66 45 105.32 45 106 C45.86679382 106.27106567 46.73358765 106.54213135 47.62664795 106.82141113 C50.897325 107.96412719 53.87585397 109.31097019 56.97363281 110.85742188 C58.12792786 111.43141724 59.2822229 112.0054126 60.47149658 112.59680176 C61.71547509 113.2205804 62.95934878 113.8445681 64.203125 114.46875 C65.49001592 115.1115212 66.77702547 115.75405492 68.06414795 116.3963623 C70.75175542 117.73869654 73.43790407 119.08389501 76.12304688 120.43115234 C79.5658951 122.15829174 83.012305 123.87818363 86.45982742 125.59597015 C89.11378994 126.9193413 91.76583865 128.2465105 94.41732025 129.57484436 C95.68780544 130.21075402 96.95888594 130.84547573 98.23056793 131.47898865 C100.00362797 132.36298281 101.77385763 133.25264713 103.54394531 134.14257812 C104.55177063 134.64728638 105.55959595 135.15199463 106.59796143 135.67199707 C109 137 109 137 111 139 C111.24291992 141.59790039 111.24291992 141.59790039 111.23046875 144.84765625 C111.22853516 146.00974609 111.22660156 147.17183594 111.22460938 148.36914062 C111.21236328 149.58794922 111.20011719 150.80675781 111.1875 152.0625 C111.1865332 153.89651367 111.1865332 153.89651367 111.18554688 155.76757812 C111.14011056 164.85988944 111.14011056 164.85988944 110 166 C107.66702567 166.04092937 105.33294775 166.04241723 103 166 C103.00222061 167.13783432 103.00444122 168.27566864 103.00672913 169.44798279 C103.02695933 180.14630749 103.04197155 190.84462834 103.05181217 201.5429678 C103.05704131 207.04370862 103.06413951 212.54443405 103.07543945 218.04516602 C103.08626725 223.3489656 103.0922766 228.65275035 103.09487724 233.95656013 C103.09673169 235.98485612 103.10035267 238.01315126 103.10573006 240.04144096 C103.11293906 242.87196514 103.113991 245.70242718 103.11352539 248.53295898 C103.11712067 249.38028091 103.12071594 250.22760284 103.12442017 251.1006012 C103.11405216 256.88594784 103.11405216 256.88594784 102 258 C99.62798453 258.12486954 97.28359657 258.18600052 94.90991211 258.20532227 C94.16849472 258.21522186 93.42707733 258.22512146 92.66319275 258.23532104 C90.20127607 258.26702466 87.73934007 258.29172826 85.27734375 258.31640625 C83.57482895 258.33696814 81.87231935 258.3579644 80.16981506 258.37937927 C75.68012691 258.43467899 71.19039208 258.48405328 66.70062256 258.53222656 C62.12263822 258.58238406 57.54472197 258.63810008 52.96679688 258.69335938 C43.9779227 258.80103751 34.9889895 258.90246088 26 259 C26 260.98 26 262.96 26 265 C26.85549438 264.99214478 26.85549438 264.99214478 27.72827148 264.98413086 C30.29800323 264.96341779 32.86771747 264.9503581 35.4375 264.9375 C36.33533203 264.92912109 37.23316406 264.92074219 38.15820312 264.91210938 C39.01220703 264.90888672 39.86621094 264.90566406 40.74609375 264.90234375 C41.93223267 264.89448853 41.93223267 264.89448853 43.14233398 264.88647461 C45 265 45 265 46 266 C46.34071134 270.10890472 46.39996764 274.22186933 46.45996094 278.34350586 C46.48635237 279.72374582 46.52703676 281.10379716 46.58300781 282.4831543 C46.93297137 291.21643166 46.4736197 297.16902247 40.81787109 304.04858398 C40.21797363 304.69255127 39.61807617 305.33651855 39 306 C38.21753906 306.84175781 37.43507812 307.68351562 36.62890625 308.55078125 C24.29494371 319.0661255 24.29494371 319.0661255 19.6953125 318.93359375 C15.97261938 317.64413918 13.15808964 315.43988124 10.125 313 C9.50729736 312.50886719 8.88959473 312.01773437 8.25317383 311.51171875 C2.67786346 306.9579235 -2.67637382 301.97087853 -5 295 C-5.09526066 292.80109635 -5.13073135 290.59940263 -5.1328125 288.3984375 C-5.13410156 287.10421875 -5.13539063 285.81 -5.13671875 284.4765625 C-5.13462402 283.80399414 -5.1325293 283.13142578 -5.13037109 282.43847656 C-5.1250015 280.37557685 -5.1303336 278.31289311 -5.13671875 276.25 C-5.13542969 274.95835937 -5.13414062 273.66671875 -5.1328125 272.3359375 C-5.13168457 271.14532715 -5.13055664 269.9547168 -5.12939453 268.72802734 C-5 266 -5 266 -4 265 C-1.88115293 264.79570345 0.2472027 264.68606262 2.375 264.625 C3.53773438 264.57601563 4.70046875 264.52703125 5.8984375 264.4765625 C9 265 9 265 10.80859375 267.12890625 C12.81745329 271.96992843 13.82210105 276.89577123 15 282 C15 274.41 15 266.82 15 259 C-18.33 258.67 -51.66 258.34 -86 258 C-86.33 227.97 -86.66 197.94 -87 167 C-89.31 166.67 -91.62 166.34 -94 166 C-95.7059965 164.2940035 -95.13013541 162.08649836 -95.1328125 159.7578125 C-95.13410156 158.69175781 -95.13539062 157.62570313 -95.13671875 156.52734375 C-95.13285156 155.40457031 -95.12898438 154.28179687 -95.125 153.125 C-95.12886719 152.00996094 -95.13273437 150.89492187 -95.13671875 149.74609375 C-95.13542969 148.67746094 -95.13414063 147.60882813 -95.1328125 146.5078125 C-95.13112061 145.03272217 -95.13112061 145.03272217 -95.12939453 143.52783203 C-95 141 -95 141 -94 138 C-92.01098633 136.67578125 -92.01098633 136.67578125 -89.33203125 135.3125 C-88.31085205 134.78736816 -87.28967285 134.26223633 -86.23754883 133.72119141 C-85.10728271 133.15319824 -83.9770166 132.58520508 -82.8125 132 C-81.64678467 131.40493652 -80.48106934 130.80987305 -79.2800293 130.19677734 C-75.19502223 128.1145407 -71.0979291 126.05665916 -67 124 C-66.19111328 123.5935022 -65.38222656 123.18700439 -64.54882812 122.76818848 C-52.71200042 116.81977501 -40.86112362 110.89980409 -29 105 C-29.53825409 104.83624374 -30.07650818 104.67248749 -30.631073 104.50376892 C-33.10745652 103.74668734 -35.58104502 102.98083158 -38.0546875 102.21484375 C-38.90119873 101.95747437 -39.74770996 101.70010498 -40.61987305 101.43493652 C-51.64399406 98.00420451 -61.32668795 92.67603227 -70 85 C-70.88429688 84.22140625 -71.76859375 83.4428125 -72.6796875 82.640625 C-88.09117701 68.21103095 -95.92532136 49.31042979 -96.95703125 28.30712891 C-97.14293144 18.32555616 -95.48856406 8.66289639 -92.625 -0.875 C-92.4283374 -1.53516113 -92.2316748 -2.19532227 -92.02905273 -2.87548828 C-90.71780035 -6.85557394 -89.35226343 -9.46128071 -86 -12 C-56.97915615 -24.76493982 -24.14107107 -20.18645943 0 0 Z " fill="#193539" transform="translate(195,47)"/>
<path d="M0 0 C4.62 1.32 9.24 2.64 14 4 C14 52.18 14 100.36 14 150 C-15.37 150 -44.74 150 -75 150 C-75 119.64 -75 89.28 -75 58 C-77.97 58 -80.94 58 -84 58 C-84 55.69 -84 53.38 -84 51 C-82.3749349 50.18746745 -80.74986191 49.37495065 -79.12475586 48.5625 C-77.68793988 47.84400947 -76.25125726 47.12525221 -74.81469727 46.40625 C-71.1802436 44.58764185 -67.54422265 42.77244822 -63.90234375 40.96875 C-57.48284714 37.78384678 -51.1113477 34.54276041 -44.8125 31.125 C-38.58412204 27.76213344 -32.25395401 24.62935756 -25.875 21.5625 C-24.97370361 21.12502441 -24.07240723 20.68754883 -23.14379883 20.23681641 C-22.28939209 19.82995605 -21.43498535 19.4230957 -20.5546875 19.00390625 C-19.79655762 18.64111572 -19.03842773 18.2783252 -18.25732422 17.90454102 C-15.85328804 16.94121049 -13.54897882 16.4311971 -11 16 C-8.52117931 26.3799275 -6.97366699 36.73952656 -5.69238281 47.32202148 C-5.37576165 49.93122346 -5.04798109 52.53884675 -4.71875 55.14648438 C-3.48225092 65.08891034 -2.52542133 74.9932844 -2 85 C-1.34 85 -0.68 85 0 85 C0 56.95 0 28.9 0 0 Z " fill="#7EA743" transform="translate(197,142)"/>
<path d="M0 0 C2.52975124 1.18196781 5.00654235 2.44333113 7.484375 3.73046875 C22.45242689 11.28422165 35.50985008 10 53 10 C53 30.13 53 50.26 53 71 C52.34 70.67 51.68 70.34 51 70 C51 68.02 51 66.04 51 64 C50.34 64 49.68 64 49 64 C48.28373718 59.80148069 47.57178296 55.60226012 46.86376953 51.40234375 C46.62243318 49.97441001 46.37993152 48.54667269 46.13623047 47.11914062 C45.7856502 45.06431098 45.43930052 43.00880569 45.09375 40.953125 C44.77954102 39.09929199 44.77954102 39.09929199 44.45898438 37.20800781 C44 34 44 34 44 30 C35.51657593 32.92231061 27.76956799 37.20632519 19.87890625 41.4140625 C13.63888088 44.73799358 7.31358241 47.88236116 0.97802734 51.01904297 C-1.78514019 52.38937217 -4.54341251 53.76941041 -7.30151367 55.14990234 C-8.6645702 55.83199233 -10.02800356 56.51332988 -11.3918457 57.19384766 C-14.31973354 58.65504496 -17.24250795 60.12395518 -20.15625 61.61328125 C-21.0534375 62.07089844 -21.950625 62.52851563 -22.875 63 C-24.01582031 63.5878125 -24.01582031 63.5878125 -25.1796875 64.1875 C-27 65 -27 65 -29 65 C-29 67.31 -29 69.62 -29 72 C-26.36 72 -23.72 72 -21 72 C-21 102.69 -21 133.38 -21 165 C10.35 165 41.7 165 74 165 C74.66 163.35 75.32 161.7 76 160 C76.66 161.32 77.32 162.64 78 164 C99.45 164 120.9 164 143 164 C143.495 118.955 143.495 118.955 144 73 C146.64 73 149.28 73 152 73 C152.33 72.67 152.66 72.34 153 72 C155.98889359 71.54234333 158.98969648 71.29679049 162 71 C162 68.03 162 65.06 162 62 C162.66 61.67 163.32 61.34 164 61 C164.02887236 64.81248426 164.04675492 68.6249407 164.0625 72.4375 C164.07087891 73.52611328 164.07925781 74.61472656 164.08789062 75.73632812 C164.09111328 76.77080078 164.09433594 77.80527344 164.09765625 78.87109375 C164.10289307 79.82943115 164.10812988 80.78776855 164.11352539 81.77514648 C164 84 164 84 163 85 C160.66702567 85.04092937 158.33294775 85.04241723 156 85 C156.00222061 86.13783432 156.00444122 87.27566864 156.00672913 88.44798279 C156.02695933 99.14630749 156.04197155 109.84462834 156.05181217 120.5429678 C156.05704131 126.04370862 156.06413951 131.54443405 156.07543945 137.04516602 C156.08626725 142.3489656 156.0922766 147.65275035 156.09487724 152.95656013 C156.09673169 154.98485612 156.10035267 157.01315126 156.10573006 159.04144096 C156.11293906 161.87196514 156.113991 164.70242718 156.11352539 167.53295898 C156.11712067 168.38028091 156.12071594 169.22760284 156.12442017 170.1006012 C156.11405216 175.88594784 156.11405216 175.88594784 155 177 C152.62798453 177.12486954 150.28359657 177.18600052 147.90991211 177.20532227 C147.16849472 177.21522186 146.42707733 177.22512146 145.66319275 177.23532104 C143.20127607 177.26702466 140.73934007 177.29172826 138.27734375 177.31640625 C136.57482895 177.33696814 134.87231935 177.3579644 133.16981506 177.37937927 C128.68012691 177.43467899 124.19039208 177.48405328 119.70062256 177.53222656 C115.12263822 177.58238406 110.54472197 177.63810008 105.96679688 177.69335938 C96.9779227 177.80103751 87.9889895 177.90246088 79 178 C79 179.98 79 181.96 79 184 C79.57032959 183.99476318 80.14065918 183.98952637 80.72827148 183.98413086 C83.29800323 183.96341779 85.86771747 183.9503581 88.4375 183.9375 C89.33533203 183.92912109 90.23316406 183.92074219 91.15820312 183.91210938 C92.43920898 183.90727539 92.43920898 183.90727539 93.74609375 183.90234375 C94.53685303 183.89710693 95.3276123 183.89187012 96.14233398 183.88647461 C98 184 98 184 99 185 C99.34071134 189.10890472 99.39996764 193.22186933 99.45996094 197.34350586 C99.48635237 198.72374582 99.52703676 200.10379716 99.58300781 201.4831543 C99.93297137 210.21643166 99.4736197 216.16902247 93.81787109 223.04858398 C93.21797363 223.69255127 92.61807617 224.33651855 92 225 C91.21753906 225.84175781 90.43507812 226.68351563 89.62890625 227.55078125 C77.29494371 238.0661255 77.29494371 238.0661255 72.6953125 237.93359375 C68.97261938 236.64413918 66.15808964 234.43988124 63.125 232 C62.50729736 231.50886719 61.88959473 231.01773438 61.25317383 230.51171875 C55.67786346 225.9579235 50.32362618 220.97087853 48 214 C47.90473934 211.80109635 47.86926865 209.59940263 47.8671875 207.3984375 C47.86589844 206.10421875 47.86460937 204.81 47.86328125 203.4765625 C47.86537598 202.80399414 47.8674707 202.13142578 47.86962891 201.43847656 C47.8749985 199.37557685 47.8696664 197.31289311 47.86328125 195.25 C47.86457031 193.95835937 47.86585938 192.66671875 47.8671875 191.3359375 C47.86831543 190.14532715 47.86944336 188.9547168 47.87060547 187.72802734 C48 185 48 185 49 184 C51.11884707 183.79570345 53.2472027 183.68606262 55.375 183.625 C56.53773438 183.57601562 57.70046875 183.52703125 58.8984375 183.4765625 C62 184 62 184 63.80859375 186.12890625 C65.81745329 190.96992843 66.82210105 195.89577123 68 201 C68 193.41 68 185.82 68 178 C34.67 177.67 1.34 177.34 -33 177 C-33.33 146.97 -33.66 116.94 -34 86 C-36.31 85.67 -38.62 85.34 -41 85 C-42.7059965 83.2940035 -42.13013541 81.08649836 -42.1328125 78.7578125 C-42.13410156 77.69175781 -42.13539062 76.62570313 -42.13671875 75.52734375 C-42.13285156 74.40457031 -42.12898438 73.28179687 -42.125 72.125 C-42.12886719 71.00996094 -42.13273437 69.89492187 -42.13671875 68.74609375 C-42.13542969 67.67746094 -42.13414063 66.60882813 -42.1328125 65.5078125 C-42.13112061 64.03272217 -42.13112061 64.03272217 -42.12939453 62.52783203 C-42 60 -42 60 -41 57 C-39.01098633 55.67578125 -39.01098633 55.67578125 -36.33203125 54.3125 C-35.31085205 53.78736816 -34.28967285 53.26223633 -33.23754883 52.72119141 C-32.10728271 52.15319824 -30.9770166 51.58520508 -29.8125 51 C-28.063927 50.10740479 -28.063927 50.10740479 -26.2800293 49.19677734 C-22.19502223 47.1145407 -18.0979291 45.05665916 -14 43 C-13.19111328 42.5935022 -12.38222656 42.18700439 -11.54882812 41.76818848 C0.28799958 35.81977501 12.13887638 29.89980409 24 24 C23.46305511 23.83722565 22.92611023 23.67445129 22.37289429 23.50674438 C19.90022464 22.75313183 17.43061601 21.98991768 14.9609375 21.2265625 C14.116521 20.97076416 13.27210449 20.71496582 12.40209961 20.45141602 C2.9687923 17.51975019 -5.36618702 13.35688426 -13 7 C-12.06479312 3.85430413 -11.29872512 2.2489376 -8.75 0.125 C-5.14402304 -1.35017239 -3.74561392 -1.13075137 0 0 Z " fill="#153039" transform="translate(142,128)"/>
<path d="M0 0 C4.46629171 0.89325834 7.82696711 2.20843246 11.80981445 4.23461914 C12.47378738 4.56638657 13.13776031 4.89815399 13.82185364 5.23997498 C16.00522412 6.33270118 18.1842257 7.43385414 20.36328125 8.53515625 C21.88044913 9.29653921 23.39788366 10.05739103 24.91557312 10.81773376 C28.90157413 12.8164504 32.88391806 14.82234925 36.86553955 16.82977295 C40.93226117 18.8785015 45.00240537 20.92040629 49.07226562 22.96289062 C57.05153872 26.96859499 65.0269644 30.98189642 73 35 C73 37.31 73 39.62 73 42 C70.36 42 67.72 42 65 42 C65 72.69 65 103.38 65 135 C43.55 135 22.1 135 0 135 C0 90.45 0 45.9 0 0 Z " fill="#B1CB75" transform="translate(220,158)"/>
<path d="M0 0 C10.39857334 8.59786001 10.39857334 8.59786001 14 14 C13.58588788 17.37715574 12.00560719 20.35414394 10.625 23.4375 C3.30924105 40.97411638 2.77802389 59.2536881 9.4140625 77.125 C10 79 10 79 10 82 C4.29251469 83.62056427 -0.82544622 84.35611477 -6.75 84.3125 C-7.5335083 84.30831055 -8.3170166 84.30412109 -9.12426758 84.29980469 C-18.76203891 84.11391149 -26.82878369 82.12703769 -35 77 C-36.11375 76.566875 -37.2275 76.13375 -38.375 75.6875 C-46.30194228 71.9973717 -53.37614545 65.66587664 -59 59 C-59 58.34 -59 57.68 -59 57 C-59.62003906 56.73316406 -60.24007812 56.46632813 -60.87890625 56.19140625 C-64.49605452 54.15967472 -65.54116979 50.69710762 -67 47 C-67.44988281 45.86820313 -67.89976563 44.73640625 -68.36328125 43.5703125 C-74.14752902 27.52583883 -74.41640269 8.21696757 -69 -8 C-67.35 -8.33 -65.7 -8.66 -64 -9 C-64 -9.66 -64 -10.32 -64 -11 C-41.79201267 -18.58321518 -18.65368446 -13.64113021 0 0 Z " fill="#7DA642" transform="translate(184,55)"/>
<path d="M0 0 C0.94174072 -0.00999023 1.88348145 -0.01998047 2.85375977 -0.03027344 C10.8203448 0.0672965 19.23332616 1.28161922 26.1875 5.4375 C33.32104761 17.88366332 32.85216285 33.30760306 29.5625 46.875 C25.3337806 62.41535262 15.58521681 78.2788912 1.31103516 86.52099609 C-14.29190221 94.91975036 -30.88342791 100.90381689 -48.8125 96.4375 C-50.2975 95.9425 -50.2975 95.9425 -51.8125 95.4375 C-52.73208863 76.73919786 -41.87611461 57.33806821 -29.70605469 43.65795898 C-17.53592138 30.37059962 -4.02910511 17.58675358 12.1875 9.4375 C-11.21620505 11.02419187 -31.11937752 22.97108631 -46.9375 39.625 C-56.30254102 50.48768928 -62.87099593 64.07956294 -63.8125 78.4375 C-64.8025 78.4375 -65.7925 78.4375 -66.8125 78.4375 C-67.45575671 56.34163191 -66.64391266 39.73256781 -51.5625 22.25 C-36.77703957 6.60814153 -21.39061237 0.13160257 0 0 Z " fill="#AFC975" transform="translate(265.8125,41.5625)"/>
<path d="M0 0 C1.91832138 -0.00422974 1.91832138 -0.00422974 3.87539673 -0.00854492 C5.30584731 -0.00660032 6.73629775 -0.00455214 8.16674805 -0.00241089 C9.66279137 -0.00376487 11.15883436 -0.00554479 12.65487671 -0.00772095 C16.72914312 -0.01229561 20.80338433 -0.01050559 24.87765121 -0.00734186 C29.13197653 -0.00481843 33.38629961 -0.00715575 37.640625 -0.00872803 C44.78638091 -0.01054977 51.93212651 -0.00814329 59.07788086 -0.00338745 C67.35135252 0.00205518 75.62479954 0.00029253 83.89827061 -0.00521386 C90.98869571 -0.00974485 98.07911337 -0.0103956 105.16953945 -0.00777519 C109.41003766 -0.00621233 113.65052426 -0.00601887 117.89102173 -0.00931168 C121.87673731 -0.01219019 125.86242097 -0.01021507 129.84813309 -0.00441742 C131.3151405 -0.00308971 132.78215058 -0.00348412 134.24915695 -0.00568008 C136.24341489 -0.00839114 138.23767866 -0.00439716 140.23193359 0 C141.90995308 0.00056554 141.90995308 0.00056554 143.62187195 0.0011425 C146.1159668 0.12698364 146.1159668 0.12698364 147.1159668 1.12698364 C147.18823181 2.97985866 147.19977899 4.83532242 147.1784668 6.68948364 C147.16944336 7.70139771 147.16041992 8.71331177 147.15112305 9.75588989 C147.1337207 10.9295813 147.1337207 10.9295813 147.1159668 12.12698364 C143.87142836 13.20849645 141.52567397 13.25279021 138.11204529 13.25396729 C136.85710266 13.25678711 135.60216003 13.25960693 134.30918884 13.26251221 C132.91592393 13.26056786 131.52265916 13.25851968 130.12939453 13.25637817 C128.66423499 13.25773297 127.19907579 13.25951335 125.73391724 13.26168823 C121.75267414 13.26625278 117.77145691 13.26447712 113.79021335 13.26130915 C109.62845714 13.25878099 105.46670319 13.26112432 101.3049469 13.26269531 C94.31657513 13.26451547 87.32821392 13.26211451 80.33984375 13.25735474 C72.25266627 13.25191028 64.165514 13.25367672 56.07833713 13.25918114 C49.14157026 13.26371411 42.20481098 13.26436198 35.2680431 13.26174247 C31.12199907 13.26018099 26.9759669 13.25998248 22.82992363 13.26327896 C18.93364274 13.2661604 15.03739445 13.26417693 11.1411171 13.2583847 C9.70839174 13.25705867 8.27566366 13.25744859 6.84293938 13.25964737 C4.89292878 13.26236489 2.94291221 13.25835877 0.99290466 13.25396729 C-0.10013253 13.25359026 -1.19316973 13.25321323 -2.31932926 13.25282478 C-4.8840332 13.12698364 -4.8840332 13.12698364 -6.8840332 12.12698364 C-6.91090599 10.31456313 -6.93037036 8.50203131 -6.9465332 6.68948364 C-6.95813477 5.68014771 -6.96973633 4.67081177 -6.98168945 3.63088989 C-6.79685688 -1.10821728 -4.13494756 0.00139359 0 0 Z " fill="#81A647" transform="translate(35.884033203125,329.8730163574219)"/>
<path d="M0 0 C1.6406543 -0.00422974 1.6406543 -0.00422974 3.31445312 -0.00854492 C4.52488281 -0.00652069 5.7353125 -0.00449646 6.98242188 -0.00241089 C8.24892578 -0.00416321 9.51542969 -0.00591553 10.8203125 -0.00772095 C14.30369007 -0.0122948 17.78703815 -0.01050592 21.27041626 -0.00734186 C24.90814293 -0.00481801 28.54586699 -0.00715587 32.18359375 -0.00872803 C38.29362442 -0.01054965 44.40364303 -0.0081436 50.51367188 -0.00338745 C57.58745033 0.00205516 64.66119997 0.0002925 71.73497772 -0.00521386 C77.79781085 -0.00974519 83.86063527 -0.01039543 89.92346954 -0.00777519 C93.54916354 -0.00621253 97.17484397 -0.00601835 100.80053711 -0.00931168 C104.84034952 -0.01272454 108.8801119 -0.00800032 112.91992188 -0.00241089 C114.13035156 -0.00443512 115.34078125 -0.00645935 116.58789062 -0.00854492 C117.68166016 -0.0057251 118.77542969 -0.00290527 119.90234375 0 C120.85878784 0.00037703 121.81523193 0.00075405 122.80065918 0.0011425 C124.95117188 0.12698364 124.95117188 0.12698364 125.95117188 1.12698364 C126.07572048 2.76928729 126.12685712 4.4175064 126.13867188 6.06448364 C126.15285156 6.96038208 126.16703125 7.85628052 126.18164062 8.77932739 C125.95117188 11.12698364 125.95117188 11.12698364 123.95117188 13.12698364 C121.7116394 13.37866592 121.7116394 13.37866592 118.86474609 13.38095093 C117.78787537 13.38659058 116.71100464 13.39223022 115.60150146 13.39804077 C114.41493958 13.39399231 113.22837769 13.38994385 112.00585938 13.38577271 C110.13755463 13.39102966 110.13755463 13.39102966 108.23150635 13.39639282 C104.81002724 13.40370221 101.38878906 13.4019676 97.9673233 13.39563465 C94.39146087 13.39058102 90.81560892 13.39526432 87.23974609 13.39840698 C81.23403061 13.40204849 75.22836427 13.3972427 69.22265625 13.38772583 C62.27324676 13.3768409 55.32395461 13.38036635 48.37454796 13.39137864 C42.41443055 13.40044627 36.45434853 13.40173937 30.49422646 13.3965013 C26.93165793 13.3933787 23.3691446 13.39298017 19.80657959 13.39957428 C15.83650123 13.40640901 11.86655495 13.39694352 7.89648438 13.38577271 C6.11664154 13.3918454 6.11664154 13.3918454 4.30084229 13.39804077 C3.22397156 13.39240112 2.14710083 13.38676147 1.03759766 13.38095093 C-0.37161453 13.37981985 -0.37161453 13.37981985 -1.80929565 13.37866592 C-4.04882812 13.12698364 -4.04882812 13.12698364 -6.04882812 11.12698364 C-6.27929688 8.77932739 -6.27929688 8.77932739 -6.23632812 6.06448364 C-6.22988281 5.16600708 -6.2234375 4.26753052 -6.21679688 3.34182739 C-5.89981735 -0.83787941 -3.67931183 0.00145037 0 0 Z " fill="#B1C979" transform="translate(253.048828125,329.8730163574219)"/>
<path d="M0 0 C0.66 0 1.32 0 2 0 C2 2.97 2 5.94 2 9 C2.66 9 3.32 9 4 9 C4.2475 10.155 4.495 11.31 4.75 12.5 C5.70471953 16.40189722 7.22216003 19.6552024 9.1953125 23.140625 C10 25 10 25 10 29 C10.66 29 11.32 29 12 29 C13.25390625 30.42578125 13.25390625 30.42578125 14.5625 32.3125 C14.99691406 32.92738281 15.43132812 33.54226562 15.87890625 34.17578125 C17 36 17 36 18 39 C20.21653871 40.79708102 20.21653871 40.79708102 22.875 42.5 C27.77628346 45.757996 27.77628346 45.757996 29.43359375 47.55078125 C31.72806667 49.67359784 34.29806836 50.53794118 37.1875 51.6875 C38.27417969 52.12449219 39.36085937 52.56148437 40.48046875 53.01171875 C41.31191406 53.33785156 42.14335937 53.66398437 43 54 C43 54.66 43 55.32 43 56 C48.94 56.66 54.88 57.32 61 58 C62 65 63 72 64 79 C46.50616171 78.40089595 28.43121296 74.55719297 15.4375 62.0625 C0.24725349 45.55675829 -1.36439297 26.39367338 -1.14526367 4.9543457 C-1 3 -1 3 0 0 Z " fill="#173437" transform="translate(119,53)"/>
<path d="M0 0 C1.32 0.33 2.64 0.66 4 1 C2.35 1.66 0.7 2.32 -1 3 C-1 4.32 -1 5.64 -1 7 C-0.01 7.33 0.98 7.66 2 8 C2 10.31 2 12.62 2 15 C2.66 15 3.32 15 4 15 C5 20 6 25 7 30 C3.67617413 25.66457495 2.87981332 23.52858726 3 18 C2.34 18 1.68 18 1 18 C1 15.03 1 12.06 1 9 C0.34 9 -0.32 9 -1 9 C-1.40187194 32.92065428 -0.90235728 53.49717426 16.5 71.875 C23.23187867 78.22135258 31.44376916 80.86057094 40 84 C40 84.33 40 84.66 40 85 C28.40909091 83.40909091 28.40909091 83.40909091 26 81 C25.01 81 24.02 81 23 81 C22.67 81.66 22.34 82.32 22 83 C22.66 83 23.32 83 24 83 C24 83.66 24 84.32 24 85 C19.80165873 83.60305639 17.16409471 81.62717931 13.9375 78.625 C13.10089844 77.85414062 12.26429688 77.08328125 11.40234375 76.2890625 C10.60957031 75.53367187 9.81679687 74.77828125 9 74 C7.85724609 72.92878906 7.85724609 72.92878906 6.69140625 71.8359375 C5 70 5 70 5 68 C4.37996094 67.73316406 3.75992188 67.46632813 3.12109375 67.19140625 C-0.49605452 65.15967472 -1.54116979 61.69710762 -3 58 C-3.44988281 56.86820313 -3.89976563 55.73640625 -4.36328125 54.5703125 C-10.14752902 38.52583883 -10.41640269 19.21696757 -5 3 C-3.35 2.67 -1.7 2.34 0 2 C0 1.34 0 0.68 0 0 Z " fill="#759C49" transform="translate(120,44)"/>
<path d="M0 0 C2.475 0.495 2.475 0.495 5 1 C4.01 1.66 3.02 2.32 2 3 C1.53655381 5.36807463 1.53655381 5.36807463 1.60127258 8.17581177 C1.58873444 9.27240112 1.57619629 10.36899048 1.5632782 11.49880981 C1.56471329 12.70721527 1.56614838 13.91562073 1.56762695 15.16064453 C1.5574353 16.42890076 1.54724365 17.69715698 1.53674316 19.00384521 C1.50909049 22.48710933 1.49987757 25.9702102 1.49388909 29.45356989 C1.48452678 33.091824 1.45832526 36.72995512 1.43388367 40.36813354 C1.39015571 47.25998988 1.36164755 54.15182243 1.33856028 61.04377544 C1.30649292 70.35512766 1.25101047 79.66633813 1.19681454 88.97758293 C1.11202364 103.65167993 1.05860012 118.32572094 1 133 C21.46 133 41.92 133 63 133 C63 102.97 63 72.94 63 42 C63.66 42 64.32 42 65 42 C65 72.69 65 103.38 65 135 C43.55 135 22.1 135 0 135 C0 90.45 0 45.9 0 0 Z " fill="#85A16F" transform="translate(220,158)"/>
<path d="M0 0 C1.43088528 2.86177057 0.59991697 4.93375773 0 8 C-0.99 8 -1.98 8 -3 8 C-3.06058594 8.84304687 -3.12117187 9.68609375 -3.18359375 10.5546875 C-3.26738281 11.65039062 -3.35117188 12.74609375 -3.4375 13.875 C-3.51871094 14.96554688 -3.59992188 16.05609375 -3.68359375 17.1796875 C-4 20 -4 20 -5 22 C-2.52733235 21.65555119 -2.52733235 21.65555119 0 21 C0.33 20.34 0.66 19.68 1 19 C1.66 19.33 2.32 19.66 3 20 C2.59007812 20.87140625 2.18015625 21.7428125 1.7578125 22.640625 C-1.75601887 30.40804171 -4.09050296 37.43818306 -5 46 C-5.99 46 -6.98 46 -8 46 C-8.93949045 13.72850318 -8.93949045 13.72850318 0 0 Z " fill="#ABC87B" transform="translate(207,74)"/>
<path d="M0 0 C2.475 0.495 2.475 0.495 5 1 C4.01 1.66 3.02 2.32 2 3 C1.536469 5.38488811 1.536469 5.38488811 1.60127258 8.21377563 C1.58873444 9.31877914 1.57619629 10.42378265 1.5632782 11.56227112 C1.56471329 12.78002731 1.56614838 13.99778351 1.56762695 15.25244141 C1.5574353 16.5304512 1.54724365 17.808461 1.53674316 19.12519836 C1.50908995 22.63532095 1.49987749 26.14528155 1.49388909 29.65549898 C1.48452692 33.3217798 1.45832541 36.98793857 1.43388367 40.65414429 C1.39015532 47.59912475 1.36164739 54.54408163 1.33856028 61.48915803 C1.31154244 69.39480713 1.26762893 77.30033383 1.22227156 85.20589566 C1.12933463 101.47053515 1.05769548 117.73519653 1 134 C0.67 134 0.34 134 0 134 C0 89.78 0 45.56 0 0 Z " fill="#8FAC71" transform="translate(220,158)"/>
<path d="M0 0 C0.33 0 0.66 0 1 0 C1 25.74 1 51.48 1 78 C0.67 78 0.34 78 0 78 C-1.76356149 68.01757646 -3.42358005 58.13704052 -4 48 C-3.34 48 -2.68 48 -2 48 C-1.67 49.98 -1.34 51.96 -1 54 C-0.67 36.18 -0.34 18.36 0 0 Z " fill="#163527" transform="translate(195,144)"/>
<path d="M0 0 C1.32 0.33 2.64 0.66 4 1 C2.35 1.66 0.7 2.32 -1 3 C-1 4.32 -1 5.64 -1 7 C-0.01 7.33 0.98 7.66 2 8 C2 10.31 2 12.62 2 15 C2.66 15 3.32 15 4 15 C5 20 6 25 7 30 C3.67617413 25.66457495 2.87981332 23.52858726 3 18 C2.34 18 1.68 18 1 18 C1 15.03 1 12.06 1 9 C0.34 9 -0.32 9 -1 9 C-1.24851018 26.53098652 -1.24851018 26.53098652 0 44 C-0.66 43.67 -1.32 43.34 -2 43 C-2.39428711 41.12353516 -2.39428711 41.12353516 -2.58984375 38.6640625 C-2.66315918 37.75946289 -2.73647461 36.85486328 -2.81201172 35.92285156 C-3.1237773 31.0755041 -3.36487028 26.22826745 -3.5625 21.375 C-3.60568359 20.37082031 -3.64886719 19.36664063 -3.69335938 18.33203125 C-3.79809859 15.88811617 -3.90027256 13.44412383 -4 11 C-4.66 12.65 -5.32 14.3 -6 16 C-7.07310858 12.72814447 -6.89263102 10.57052408 -6.0625 7.25 C-5.77052734 6.05117188 -5.77052734 6.05117188 -5.47265625 4.828125 C-5.31667969 4.22484375 -5.16070312 3.6215625 -5 3 C-3.35 2.67 -1.7 2.34 0 2 C0 1.34 0 0.68 0 0 Z " fill="#688E48" transform="translate(120,44)"/>
<path d="M0 0 C0.33 0 0.66 0 1 0 C1 10.56 1 21.12 1 32 C0.01 32.495 0.01 32.495 -1 33 C-4.09086943 28.36369586 -3.32858494 23.6402945 -3.3125 18.1875 C-3.33666992 16.56618164 -3.33666992 16.56618164 -3.36132812 14.91210938 C-3.36488464 9.1185491 -3.23478509 4.89058537 0 0 Z " fill="#7EA744" transform="translate(116,54)"/>
<path d="M0 0 C-2.04882207 2.1808014 -4.0612051 3.77738824 -6.625 5.3125 C-11.16933569 8.08302436 -15.58633415 11.02690564 -20 14 C-20 13.01 -20 12.02 -20 11 C-19.34 11 -18.68 11 -18 11 C-18 10.34 -18 9.68 -18 9 C-18.66 9 -19.32 9 -20 9 C-20 8.01 -20 7.02 -20 6 C-21.98 6.33 -23.96 6.66 -26 7 C-22.85492941 4.90328627 -20.23174751 4.02282562 -16.625 2.9375 C-15.50351562 2.59589844 -14.38203125 2.25429688 -13.2265625 1.90234375 C-8.70162086 0.63689397 -4.70414119 -0.13440403 0 0 Z " fill="#26413B" transform="translate(279,50)"/>
<path d="M0 0 C1.32 0.33 2.64 0.66 4 1 C3.01 1.495 3.01 1.495 2 2 C1.67 29.72 1.34 57.44 1 86 C0.34 86 -0.32 86 -1 86 C-2.28317892 82.15046324 -2.06643637 79.05261865 -2 75 C-1.67 75 -1.34 75 -1 75 C-0.67 50.25 -0.34 25.5 0 0 Z " fill="#466B3B" transform="translate(196,141)"/>
<path d="M0 0 C0 0.66 0 1.32 0 2 C-0.99 2 -1.98 2 -3 2 C-3 2.66 -3 3.32 -3 4 C-3.56589844 4.26554688 -4.13179687 4.53109375 -4.71484375 4.8046875 C-5.81505859 5.33449219 -5.81505859 5.33449219 -6.9375 5.875 C-7.66839844 6.22304687 -8.39929688 6.57109375 -9.15234375 6.9296875 C-11.16332459 7.8684977 -11.16332459 7.8684977 -12 10 C-16.09194801 11.41644354 -19.66708088 12.26260116 -24 12 C-24 12.66 -24 13.32 -24 14 C-24.66 14 -25.32 14 -26 14 C-26.33 14.99 -26.66 15.98 -27 17 C-30.96 17.495 -30.96 17.495 -35 18 C-35 18.66 -35 19.32 -35 20 C-36.65 20.66 -38.3 21.32 -40 22 C-40.66 21.34 -41.32 20.68 -42 20 C-32.30525497 14.72970237 -22.51018107 9.71516381 -12.5625 4.9375 C-11.04354126 4.20406372 -11.04354126 4.20406372 -9.49389648 3.45581055 C-8.54844971 3.0050415 -7.60300293 2.55427246 -6.62890625 2.08984375 C-5.78400635 1.68628662 -4.93910645 1.28272949 -4.06860352 0.86694336 C-2 0 -2 0 0 0 Z " fill="#72984E" transform="translate(159,171)"/>
<path d="M0 0 C3 1 3 1 4.75 3.8125 C6.07420698 7.1892278 6.11313196 7.76179792 5 11 C4.96154557 12.99963028 4.95455719 15.00051633 5 17 C4.34 16.67 3.68 16.34 3 16 C3 15.34 3 14.68 3 14 C2.401875 13.79375 1.80375 13.5875 1.1875 13.375 C-1.90627012 11.4303445 -2.77755904 9.39566932 -4 6 C-3.14678163 3.20764896 -2.07142404 2.07142404 0 0 Z " fill="#6D9346" transform="translate(122,98)"/>
<path d="M0 0 C1.43088528 2.86177057 0.59991697 4.93375773 0 8 C-0.99 8 -1.98 8 -3 8 C-3.04898438 8.81984375 -3.09796875 9.6396875 -3.1484375 10.484375 C-3.22320312 11.56203125 -3.29796875 12.6396875 -3.375 13.75 C-3.44460937 14.81734375 -3.51421875 15.8846875 -3.5859375 16.984375 C-4 20 -4 20 -5.01147461 21.92675781 C-6.10317955 24.21639929 -6.24509161 25.66892681 -6.23046875 28.1875 C-6.22853516 28.96867187 -6.22660156 29.74984375 -6.22460938 30.5546875 C-6.21236328 31.36164063 -6.20011719 32.16859375 -6.1875 33 C-6.18685547 33.80695313 -6.18621094 34.61390625 -6.18554688 35.4453125 C-6.15801978 39.15229441 -6.0100235 42.41328312 -5 46 C-5.99 46 -6.98 46 -8 46 C-8.93949045 13.72850318 -8.93949045 13.72850318 0 0 Z " fill="#819D6C" transform="translate(207,74)"/>
<path d="M0 0 C0.66 0.33 1.32 0.66 2 1 C1.67 3.64 1.34 6.28 1 9 C-1.97 9 -4.94 9 -8 9 C-8 6.69 -8 4.38 -8 2 C-6.865625 1.855625 -5.73125 1.71125 -4.5625 1.5625 C-1.19222799 1.38828522 -1.19222799 1.38828522 0 0 Z " fill="#78A048" transform="translate(121,191)"/>
<path d="M0 0 C2.03895283 8.66875541 3.52735047 17.10115016 4 26 C1.98921934 22.49424762 1.20719002 19.00069215 0.375 15.0625 C0.11460937 13.85722656 -0.14578125 12.65195313 -0.4140625 11.41015625 C-0.91307139 8.50592451 -1.12243178 5.93279765 -1 3 C-1.721875 3.474375 -2.44375 3.94875 -3.1875 4.4375 C-5.92684067 5.95935593 -7.88917474 6.74777092 -11 7 C-11.66 6.34 -12.32 5.68 -13 5 C-11.58957044 4.15615325 -10.17135868 3.32530504 -8.75 2.5 C-7.56664062 1.80390625 -7.56664062 1.80390625 -6.359375 1.09375 C-4 0 -4 0 0 0 Z " fill="#648948" transform="translate(186,158)"/>
<path d="M0 0 C0.495 1.485 0.495 1.485 1 3 C-4.70834676 4.62080886 -9.82493942 5.35358384 -15.75 5.3125 C-16.52843262 5.31121094 -17.30686523 5.30992187 -18.10888672 5.30859375 C-24.69085092 5.20000288 -30.73704924 4.06308966 -37 2 C-37 1.67 -37 1.34 -37 1 C-35.54176788 0.9729957 -34.08339325 0.95360213 -32.625 0.9375 C-31.81289062 0.92589844 -31.00078125 0.91429687 -30.1640625 0.90234375 C-28 1 -28 1 -26 2 C-24.0406396 2.08510205 -22.07837206 2.10717656 -20.1171875 2.09765625 C-18.36728516 2.09282227 -18.36728516 2.09282227 -16.58203125 2.08789062 C-14.74705078 2.07532227 -14.74705078 2.07532227 -12.875 2.0625 C-11.02841797 2.05573242 -11.02841797 2.05573242 -9.14453125 2.04882812 C-6.09630608 2.0370133 -3.04817686 2.02054028 0 2 C0 1.34 0 0.68 0 0 Z " fill="#698E4C" transform="translate(193,134)"/>
<path d="M0 0 C0.66 0 1.32 0 2 0 C2 2.97 2 5.94 2 9 C2.66 9 3.32 9 4 9 C4 10.98 4 12.96 4 15 C3.34 14.67 2.68 14.34 2 14 C1.67 16.97 1.34 19.94 1 23 C0.34 23 -0.32 23 -1 23 C-1.02902429 19.72918529 -1.04680684 16.4584037 -1.0625 13.1875 C-1.07087891 12.25873047 -1.07925781 11.32996094 -1.08789062 10.37304688 C-1.09111328 9.48037109 -1.09433594 8.58769531 -1.09765625 7.66796875 C-1.10289307 6.84578857 -1.10812988 6.0236084 -1.11352539 5.17651367 C-1 3 -1 3 0 0 Z " fill="#1E3C2F" transform="translate(119,53)"/>
<path d="M0 0 C0.66 0 1.32 0 2 0 C3.66434402 4.20981134 4.06511827 6.62780122 3 11 C0.68756208 11.02685412 -1.6249627 11.04632841 -3.9375 11.0625 C-5.22527344 11.07410156 -6.51304687 11.08570313 -7.83984375 11.09765625 C-11 11 -11 11 -12 10 C-13.51469448 9.76807135 -15.03754562 9.58784762 -16.5625 9.4375 C-17.38878906 9.35371094 -18.21507812 9.26992187 -19.06640625 9.18359375 C-19.70449219 9.12300781 -20.34257812 9.06242188 -21 9 C-21 8.34 -21 7.68 -21 7 C-20.10861328 7.09087891 -20.10861328 7.09087891 -19.19921875 7.18359375 C-18.37035156 7.26738281 -17.54148438 7.35117188 -16.6875 7.4375 C-15.78386719 7.52902344 -14.88023437 7.62054688 -13.94921875 7.71484375 C-10.05292808 8.09157119 -6.15209866 8.40835579 -2.25 8.71875 C0 9 0 9 2 10 C1.34 6.7 0.68 3.4 0 0 Z " fill="#6E934C" transform="translate(181,122)"/>
<path d="M0 0 C1 2 1 2 0.0703125 5.21875 C-1.63026319 11.5408902 -1.21081655 18.00434748 -1.125 24.5 C-1.11597656 25.799375 -1.10695313 27.09875 -1.09765625 28.4375 C-1.07421733 31.62519299 -1.0414044 34.8124982 -1 38 C-4.65547675 34.34452325 -4.12300068 29.19400218 -4.1394043 24.23950195 C-4.13465088 23.56234131 -4.12989746 22.88518066 -4.125 22.1875 C-4.12089111 21.48262451 -4.11678223 20.77774902 -4.11254883 20.05151367 C-3.9550253 5.33068628 -3.9550253 5.33068628 0 0 Z " fill="#38593A" transform="translate(114,50)"/>
<path d="M0 0 C0.33 0 0.66 0 1 0 C1.25 2.25 1.25 2.25 1 5 C-0.28817344 6.37701298 -1.62804426 7.70644173 -3 9 C-4.06011943 10.96879323 -5.07470849 12.96435867 -6 15 C-6.66 15 -7.32 15 -8 15 C-8.33 15.99 -8.66 16.98 -9 18 C-9.66 18 -10.32 18 -11 18 C-9.5810861 14.10508136 -7.74229459 10.79470749 -5.5 7.3125 C-4.8915625 6.35988281 -4.283125 5.40726562 -3.65625 4.42578125 C-2 2 -2 2 0 0 Z " fill="#92AF71" transform="translate(234,88)"/>
<path d="M0 0 C1.12664062 -0.01224609 2.25328125 -0.02449219 3.4140625 -0.03710938 C4.49171875 -0.03904297 5.569375 -0.04097656 6.6796875 -0.04296875 C8.14124268 -0.04913208 8.14124268 -0.04913208 9.63232422 -0.05541992 C12.125 0.1875 12.125 0.1875 15.125 2.1875 C14.37516846 2.17178955 13.62533691 2.1560791 12.8527832 2.13989258 C9.38110214 2.07666439 5.90954287 2.03823435 2.4375 2 C0.66922852 1.96229492 0.66922852 1.96229492 -1.13476562 1.92382812 C-9.44691419 1.8555091 -16.86852995 2.96519721 -24.875 5.1875 C-24.545 4.5275 -24.215 3.8675 -23.875 3.1875 C-23.215 3.1875 -22.555 3.1875 -21.875 3.1875 C-21.875 2.5275 -21.875 1.8675 -21.875 1.1875 C-14.56051221 0.22099791 -7.37388019 0.00430717 0 0 Z " fill="#607B58" transform="translate(265.875,40.8125)"/>
<path d="M0 0 C0.33 0 0.66 0 1 0 C1 11.55 1 23.1 1 35 C0.34 35 -0.32 35 -1 35 C-2.28317892 31.15046324 -2.06643637 28.05261865 -2 24 C-1.67 24 -1.34 24 -1 24 C-0.67 16.08 -0.34 8.16 0 0 Z " fill="#476B34" transform="translate(196,192)"/>
<path d="M0 0 C0.33 0 0.66 0 1 0 C1.375 2.6875 1.375 2.6875 1 6 C-1.8125 8.5 -1.8125 8.5 -3.48828125 9.70703125 C-5.30502369 11.08164385 -5.30502369 11.08164385 -6.5 14.1875 C-8 17 -8 17 -11.1875 18.375 C-12.115625 18.58125 -13.04375 18.7875 -14 19 C-13.154375 18.05125 -12.30875 17.1025 -11.4375 16.125 C-7.20123199 11.19277367 -2.91688678 5.83377357 0 0 Z " fill="#2F4B39" transform="translate(288,104)"/>
<path d="M0 0 C0.66 0 1.32 0 2 0 C4.2788609 6.83658271 4.77920006 12.88319978 3 20 C2.67 20 2.34 20 2 20 C1.34 13.4 0.68 6.8 0 0 Z " fill="#234330" transform="translate(191,192)"/>
<path d="M0 0 C1.65 1.65 3.3 3.3 5 5 C3.63016497 8.16115776 3.0109362 8.9927092 0 11 C-0.19406478 9.35492782 -0.38007935 7.70890406 -0.5625 6.0625 C-0.66691406 5.14597656 -0.77132812 4.22945313 -0.87890625 3.28515625 C-0.91886719 2.53105469 -0.95882812 1.77695313 -1 1 C-0.67 0.67 -0.34 0.34 0 0 Z " fill="#79A046" transform="translate(118,91)"/>
<path d="M0 0 C0.93065133 2.60582371 1.14917407 3.64198224 0.0625 6.25 C-0.4634375 7.11625 -0.4634375 7.11625 -1 8 C-0.34 8 0.32 8 1 8 C0.67 9.32 0.34 10.64 0 12 C-0.99 11.67 -1.98 11.34 -3 11 C-3.99 11.495 -3.99 11.495 -5 12 C-4.54738642 10.56068883 -4.08767021 9.12361001 -3.625 7.6875 C-3.24214844 6.48673828 -3.24214844 6.48673828 -2.8515625 5.26171875 C-2 3 -2 3 0 0 Z " fill="#244433" transform="translate(197,72)"/>
<path d="M0 0 C0.66 0 1.32 0 2 0 C1.37064741 2.93697877 0.67498244 5.48752634 -1 8 C-3.625 9.25 -3.625 9.25 -6 10 C-4.63312778 6.01328937 -2.84804907 3.11505367 0 0 Z " fill="#97B474" transform="translate(214,64)"/>
<path d="M0 0 C0.66 0 1.32 0 2 0 C3.62950412 4.12168689 4.26264601 6.70700357 3 11 C0.36 10.67 -2.28 10.34 -5 10 C-5 9.67 -5 9.34 -5 9 C-2.69 9.33 -0.38 9.66 2 10 C1.34 6.7 0.68 3.4 0 0 Z " fill="#65894B" transform="translate(181,122)"/>
<path d="M0 0 C2.64 0 5.28 0 8 0 C8 1.98 8 3.96 8 6 C7.67 4.68 7.34 3.36 7 2 C5.3603125 2.7425 5.3603125 2.7425 3.6875 3.5 C0 5 0 5 -3 5 C-3 4.34 -3 3.68 -3 3 C-2.01 2.67 -1.02 2.34 0 2 C0 1.34 0 0.68 0 0 Z " fill="#204032" transform="translate(179,156)"/>
<path d="M0 0 C0.66 0 1.32 0 2 0 C2 1.65 2 3.3 2 5 C1.34 5 0.68 5 0 5 C0 10.94 0 16.88 0 23 C-0.33 23 -0.66 23 -1 23 C-1.02902429 19.72918529 -1.04680684 16.4584037 -1.0625 13.1875 C-1.07087891 12.25873047 -1.07925781 11.32996094 -1.08789062 10.37304688 C-1.09111328 9.48037109 -1.09433594 8.58769531 -1.09765625 7.66796875 C-1.10289307 6.84578857 -1.10812988 6.0236084 -1.11352539 5.17651367 C-1 3 -1 3 0 0 Z " fill="#3D5F35" transform="translate(119,53)"/>
<path d="M0 0 C1.32 0 2.64 0 4 0 C4 3.63 4 7.26 4 11 C3.01 10.67 2.02 10.34 1 10 C1.020625 8.906875 1.04125 7.81375 1.0625 6.6875 C1.18544452 3.05615809 1.18544452 3.05615809 0 0 Z " fill="#839F52" transform="translate(179,331)"/>
<path d="M0 0 C1 2 1 2 0.25 5.4375 C-1.40856031 10.16439689 -1.40856031 10.16439689 -4 12 C-4.66 12 -5.32 12 -6 12 C-4.68139111 7.38486888 -2.78644563 3.90102388 0 0 Z " fill="#3D5840" transform="translate(212,90)"/>
<path d="M0 0 C0.66 0.33 1.32 0.66 2 1 C-1.23507998 5.4114727 -4.84557192 5.84694558 -9.953125 6.703125 C-10.62859375 6.80109375 -11.3040625 6.8990625 -12 7 C-10.54312306 4.08624612 -8.49246097 3.64222221 -5.5625 2.3125 C-4.57378906 1.85488281 -3.58507812 1.39726562 -2.56640625 0.92578125 C-1.29603516 0.46751953 -1.29603516 0.46751953 0 0 Z " fill="#6E954D" transform="translate(171,164)"/>
<path d="M0 0 C0.33 0.99 0.66 1.98 1 3 C0.01 4.485 0.01 4.485 -1 6 C-1.66 6 -2.32 6 -3 6 C-3.33 6.99 -3.66 7.98 -4 9 C-4.66 9 -5.32 9 -6 9 C-4.68775452 5.06326356 -3.08089673 2.77280706 0 0 Z " fill="#98B479" transform="translate(229,97)"/>
<path d="M0 0 C0.33 0.99 0.66 1.98 1 3 C-1 5 -1 5 -3.625 5.125 C-4.40875 5.08375 -5.1925 5.0425 -6 5 C-5.34 4.34 -4.68 3.68 -4 3 C-4.99 2.34 -5.98 1.68 -7 1 C-4 0 -4 0 0 0 Z " fill="#95B06C" transform="translate(282,48)"/>
<path d="M0 0 C0.66 0.33 1.32 0.66 2 1 C-0.31 3.64 -2.62 6.28 -5 9 C-6.32 8.67 -7.64 8.34 -9 8 C-6.03 5.36 -3.06 2.72 0 0 Z " fill="#94AF75" transform="translate(257,65)"/>
<path d="M0 0 C1.485 0.99 1.485 0.99 3 2 C3.29296875 4.1640625 3.29296875 4.1640625 3.1875 6.625 C3.16042969 7.44226563 3.13335937 8.25953125 3.10546875 9.1015625 C3.07066406 9.72804687 3.03585938 10.35453125 3 11 C2.34 11 1.68 11 1 11 C-0.28317892 7.15046324 -0.06643637 4.05261865 0 0 Z " fill="#517532" transform="translate(194,216)"/>
<path d="M0 0 C0.33 0.66 0.66 1.32 1 2 C-0.0625 5 -0.0625 5 -2 8 C-5.1875 9.375 -5.1875 9.375 -8 10 C-7.59007812 9.52949219 -7.18015625 9.05898437 -6.7578125 8.57421875 C-6.21898437 7.95160156 -5.68015625 7.32898438 -5.125 6.6875 C-4.59132813 6.07261719 -4.05765625 5.45773438 -3.5078125 4.82421875 C-1.8359553 2.86501788 -1.8359553 2.86501788 0 0 Z " fill="#39543F" transform="translate(282,113)"/>
<path d="M0 0 C0.66 0.33 1.32 0.66 2 1 C-0.25 3.5625 -0.25 3.5625 -3 6 C-5.3125 5.8125 -5.3125 5.8125 -7 5 C-2.25 1.125 -2.25 1.125 0 0 Z " fill="#8CA670" transform="translate(274,53)"/>
<path d="M0 0 C1.32 0.33 2.64 0.66 4 1 C4 3.64 4 6.28 4 9 C3.34 9 2.68 9 2 9 C2 6.69 2 4.38 2 2 C1.34 2 0.68 2 0 2 C0 1.34 0 0.68 0 0 Z " fill="#2E4936" transform="translate(291,191)"/>
<path d="M0 0 C2.45823172 3.68734758 3.01242616 6.69699971 4 11 C2.68 10.34 1.36 9.68 0 9 C0 6.03 0 3.06 0 0 Z " fill="#72974C" transform="translate(189,122)"/>
<path d="M0 0 C1.46067199 0.45082469 2.91848032 0.91093537 4.375 1.375 C5.18710938 1.63023438 5.99921875 1.88546875 6.8359375 2.1484375 C9 3 9 3 11 5 C6.97007218 4.44687265 2.97977076 3.8441938 -1 3 C-0.67 2.01 -0.34 1.02 0 0 Z " fill="#6A8F4A" transform="translate(149,124)"/>
<path d="M0 0 C1.32 0 2.64 0 4 0 C2.9024777 2.99324263 2.32317108 3.84610901 -0.625 5.25 C-1.40875 5.4975 -2.1925 5.745 -3 6 C-2.42655063 3.13275314 -2.1385485 2.1385485 0 0 Z " fill="#9FBB7E" transform="translate(270,121)"/>
<path d="M0 0 C0.66 0 1.32 0 2 0 C1.35499066 3.48305042 -0.04134776 6.06202164 -2 9 C-2.33 9 -2.66 9 -3 9 C-3 7.35 -3 5.7 -3 4 C-2.01 3.67 -1.02 3.34 0 3 C0 2.01 0 1.02 0 0 Z " fill="#A0BA7D" transform="translate(290,96)"/>
<path d="M0 0 C2.97 0.495 2.97 0.495 6 1 C3.37801226 3.15377564 1.35595828 4.40072174 -2 5 C-1.34 3.35 -0.68 1.7 0 0 Z " fill="#1E3E30" transform="translate(163,164)"/>
<path d="M0 0 C0.33 0.99 0.66 1.98 1 3 C-0.75 4.5625 -0.75 4.5625 -3 6 C-4.32 5.67 -5.64 5.34 -7 5 C-4.69 3.35 -2.38 1.7 0 0 Z " fill="#2C4838" transform="translate(273,123)"/>
<path d="M0 0 C0 3.52032428 -0.70351351 4.4385343 -3 7 C-3.66 7 -4.32 7 -5 7 C-5 7.66 -5 8.32 -5 9 C-5.66 8.67 -6.32 8.34 -7 8 C-4.69 5.36 -2.38 2.72 0 0 Z " fill="#85A16A" transform="translate(242,79)"/>
<path d="M0 0 C1.31602523 0.61754259 2.62773556 1.24428742 3.9375 1.875 C4.66839844 2.22304688 5.39929688 2.57109375 6.15234375 2.9296875 C8 4 8 4 9 6 C6.69 5.67 4.38 5.34 2 5 C2 4.01 2 3.02 2 2 C1.34 2 0.68 2 0 2 C0 1.34 0 0.68 0 0 Z " fill="#73984E" transform="translate(172,48)"/>
<path d="M0 0 C1.32 0 2.64 0 4 0 C3.67 1.98 3.34 3.96 3 6 C2.01 6.33 1.02 6.66 0 7 C0 6.34 0 5.68 0 5 C-0.66 4.67 -1.32 4.34 -2 4 C-0.68 3.34 0.64 2.68 2 2 C1.34 1.34 0.68 0.68 0 0 Z " fill="#213A42" transform="translate(164,150)"/>
<path d="M0 0 C0.33 1.32 0.66 2.64 1 4 C0.01 4.495 0.01 4.495 -1 5 C-1.33 5.66 -1.66 6.32 -2 7 C-2.99 7 -3.98 7 -5 7 C-3.70700306 4.11562221 -2.34058637 2.12780579 0 0 Z " fill="#385340" transform="translate(221,78)"/>
<path d="M0 0 C-2.05233685 2.2477975 -3.00667261 3.0022242 -6 4 C-6 3.34 -6 2.68 -6 2 C-7.32 1.67 -8.64 1.34 -10 1 C-6.59437148 0.22157062 -3.49234244 -0.09978121 0 0 Z " fill="#3E563A" transform="translate(279,50)"/>
<path d="M0 0 C0.99 0.33 1.98 0.66 3 1 C1.35 2.65 -0.3 4.3 -2 6 C-2.33 4.68 -2.66 3.36 -3 2 C-2.01 1.34 -1.02 0.68 0 0 Z " fill="#203A38" transform="translate(227,49)"/>
<path d="M0 0 C1.5625 1.25 1.5625 1.25 3 3 C2.6875 5.1875 2.6875 5.1875 2 7 C2 6.34 2 5.68 2 5 C1.01 5 0.02 5 -1 5 C-0.67 3.35 -0.34 1.7 0 0 Z " fill="#7FA741" transform="translate(118,91)"/>
</svg>
